<?xml version="1.0" encoding="UTF-8"?><svg id="Layer_1" xmlns="http://www.w3.org/2000/svg" viewBox="0 0 21.18 24"><defs><style>.cls-1{fill:#fffdfd;}</style></defs><path class="cls-1" d="M6.28,15.14l-3.67.85c-.38.09-.76.18-1.15.15-.26-.02-.51-.04-.76-.21-.13-.1-.25-.22-.33-.36C.02,15.02,0,14.21,0,13.57c0-.7.11-1.4.33-2.06.03-.08.07-.17.11-.25.04-.07.08-.15.13-.22.05-.07.1-.13.16-.2.11-.12.25-.22.4-.28.15-.06.3-.09.46-.08.24,0,.51.05.91.17.06.02.12.04.19.06.33.1.7.24,1.15.4.69.24,1.37.49,2.05.74l1.21.44c.22.08.44.18.64.3.17.1.33.23.45.39.09.13.16.28.19.43.15.64-.24,1.28-.87,1.45-.05.02-.09.02-.11.03l-1.11.26h0s0,0,0,0ZM17.41,7.57c-.06-.06-.13-.12-.2-.18-.07-.05-.14-.1-.21-.14-.07-.04-.15-.08-.23-.11-.15-.06-.32-.09-.48-.08-.16,0-.31.05-.45.13-.21.1-.44.27-.74.56-.04.04-.09.09-.14.13-.25.24-.53.53-.86.86-.51.52-1.02,1.04-1.52,1.56l-.9.93c-.16.17-.31.35-.45.55-.11.16-.19.35-.24.55-.02.15-.02.3.01.45v.02c.15.64.78,1.05,1.42.92.04,0,.07-.01.11-.02l4.78-1.1c.38-.09.76-.17,1.1-.36.23-.13.44-.26.59-.53.08-.14.13-.3.14-.47.07-.65-.27-1.39-.54-1.96-.3-.63-.71-1.21-1.2-1.71ZM7.56.08c-.28.04-.56.09-.83.16-.28.07-.55.14-.81.22-.87.28-2.09.81-2.3,1.81-.12.57.16,1.14.37,1.66.26.63.61,1.19.94,1.78.85,1.55,1.72,3.1,2.59,4.65.26.46.54,1.05,1.04,1.29.03.01.07.03.1.04.22.09.47.1.7.05.01,0,.03,0,.04,0,.22-.06.41-.18.57-.34.03-.03.05-.05.08-.08.35-.44.35-1.08.38-1.61.1-1.77.21-3.54.3-5.31.03-.67.11-1.33.07-2.01-.03-.56-.04-1.2-.39-1.66C9.79-.12,8.46-.05,7.56.08ZM9.64,16.03c-.28-.39-.77-.56-1.23-.41-.05.02-.1.04-.15.06-.08.04-.15.08-.22.14-.2.15-.37.34-.52.53-.04.05-.07.11-.12.16l-.77,1.06c-.44.59-.87,1.19-1.29,1.79-.28.39-.52.72-.71,1.01-.04.05-.07.12-.11.16-.23.35-.36.61-.42.84-.05.15-.07.31-.05.47.02.17.08.32.16.47.05.07.1.14.15.21.06.06.11.12.18.18.07.06.14.12.21.17.53.37,1.11.63,1.72.84.51.17,1.04.27,1.57.3.09,0,.18,0,.27,0,.08,0,.17-.02.25-.04.08-.02.16-.04.24-.07.16-.06.3-.15.42-.27.11-.11.2-.25.25-.4.09-.22.15-.5.19-.92,0-.06.01-.13.02-.2.03-.35.04-.75.07-1.23.04-.74.07-1.47.09-2.2,0,0,.05-1.31.05-1.31.01-.3,0-.63-.08-.93-.04-.14-.1-.28-.18-.41ZM18.32,18.07c-.16-.18-.39-.35-.75-.57-.05-.03-.11-.07-.17-.1-.3-.18-.66-.37-1.08-.6-.64-.35-1.29-.7-1.94-1.04l-1.15-.61c-.06-.02-.12-.06-.18-.09-.22-.11-.46-.2-.7-.25-.08-.02-.17-.02-.25-.03-.06,0-.11,0-.16.01-.47.07-.84.44-.92.91-.02.15-.01.29.02.44.06.31.19.61.33.88l.61,1.15c.34.65.69,1.3,1.04,1.94.23.42.42.78.6,1.08.03.06.07.12.1.17.22.36.39.58.57.75.11.11.25.19.4.25.16.05.33.07.49.05.08,0,.17-.02.25-.04.08-.02.16-.05.24-.08.09-.03.17-.07.25-.11.47-.26.9-.58,1.28-.96.46-.45.87-.95,1.18-1.51.04-.08.08-.16.11-.25.03-.08.06-.16.08-.24.02-.08.03-.17.04-.25.02-.17,0-.33-.06-.49-.05-.15-.14-.29-.25-.4ZM21.18,21.81c0,.15-.04.29-.11.42-.07.13-.18.24-.31.32-.13.08-.28.12-.44.12-.15,0-.3-.04-.44-.12-.13-.08-.24-.19-.31-.32-.07-.13-.11-.28-.11-.42,0-.15.04-.3.11-.43.07-.13.18-.24.32-.32.13-.08.28-.12.43-.12.15,0,.3.04.43.11.13.07.24.18.32.31.08.13.12.28.12.43ZM21.06,21.81c0-.13-.03-.26-.1-.37s-.16-.2-.27-.27c-.11-.07-.24-.1-.37-.1-.13,0-.26.03-.37.1-.11.07-.21.16-.27.27-.07.11-.1.24-.1.37,0,.13.03.26.1.37.06.11.16.21.27.27.11.06.24.1.37.1.13,0,.26-.03.37-.1.11-.06.21-.16.27-.27.07-.11.1-.24.1-.37ZM20.48,21.87l.27.45h-.19l-.24-.41h-.15v.41h-.17v-1.02h.3c.13,0,.22.02.28.07.06.05.09.13.09.23,0,.06-.02.11-.05.16-.03.05-.08.08-.14.1ZM20.44,21.73s.06-.07.06-.12c0-.06-.02-.1-.05-.12-.03-.03-.08-.04-.16-.04h-.12v.33h.12c.06,0,.11-.02.15-.05h0Z"/></svg>